<svg version="1.1" id="Layer_1" xmlns="http://www.w3.org/2000/svg" xmlns:xlink="http://www.w3.org/1999/xlink" x="0px" y="0px"
	 viewBox="0 0 50 50" style="enable-background:new 0 0 50 50;" xml:space="preserve">
<style type="text/css">
	.st0{fill:none;}
	.st1{fill:url(#SVGID_1_);}
	.st2{fill:url(#SVGID_2_);}
	.st3{fill:url(#SVGID_3_);}
	.st4{fill:url(#SVGID_4_);}
	.st5{fill:url(#SVGID_5_);}
	.st6{fill:url(#SVGID_6_);}
</style>
<g>
	<path class="st0" d="M37.14,45.15l-0.03-0.18l-0.7-3.4l-0.19-0.87c-0.02-0.08-0.09-0.13-0.17-0.12c0,0,0,0,0,0
		c-0.08,0.02-0.13,0.09-0.12,0.17l0.12,0.88l0.13,0.85c0.25,1.68,0.43,2.81,0.53,3.06c0.16,0.36,0.52,0.58,0.87,0.51
		c0.05-0.01,0.1-0.03,0.15-0.05c0.05-0.03,0.09-0.08,0.08-0.14c0-0.06-0.04-0.11-0.1-0.13C37.2,45.53,37.18,45.42,37.14,45.15z"/>
	<path class="st0" d="M11.36,45.14l0-0.19l-0.04-3.47l-0.02-0.89c0-0.08-0.07-0.15-0.15-0.15c0,0,0,0,0,0
		c-0.08,0-0.15,0.06-0.15,0.14l-0.05,0.89l-0.04,0.86c-0.08,1.7-0.12,2.84-0.07,3.1c0.08,0.39,0.4,0.67,0.75,0.67
		c0.05,0,0.1-0.01,0.15-0.02c0.06-0.01,0.1-0.06,0.11-0.12c0.01-0.06-0.02-0.12-0.07-0.15C11.34,45.53,11.35,45.41,11.36,45.14z"/>
	<path class="st0" d="M22.12,1.58c-2.69-2.2-6.91,1.51-4.99,4.44C17.23,3.27,19.38,1.38,22.12,1.58z"/>
	<path class="st0" d="M33.31,4.57c-1.45-1.19-3.72,0.81-2.69,2.39C30.67,5.47,31.83,4.45,33.31,4.57z"/>
	<path class="st0" d="M34.7,13.6c0.01-0.22,0.06-0.42,0.14-0.6c0.25-0.56,0.81-0.9,1.48-0.85c-0.67-0.55-1.64,0.04-1.76,0.77
		C34.52,13.15,34.55,13.39,34.7,13.6z"/>
	<path class="st0" d="M24.3,48.87l-0.02-0.18l-0.39-3.45l-0.12-0.88c-0.01-0.08-0.08-0.14-0.16-0.13c0,0,0,0,0,0
		c-0.08,0.01-0.14,0.08-0.13,0.16l0.04,0.89l0.05,0.86c0.1,1.7,0.17,2.83,0.25,3.09c0.12,0.38,0.47,0.62,0.82,0.59
		c0.05-0.01,0.1-0.02,0.15-0.04c0.06-0.02,0.09-0.07,0.1-0.13c0-0.06-0.03-0.11-0.08-0.14C24.33,49.26,24.32,49.15,24.3,48.87z"/>
	<path class="st0" d="M14.41,14.67c0.02,0.23,0.1,0.47,0.25,0.69c0.01-0.29,0.07-0.55,0.16-0.8c0.37-1.03,1.34-1.68,2.53-1.59
		C16.1,11.95,14.26,13.28,14.41,14.67z"/>
	<path class="st0" d="M25.05,13.51c-0.67,0.81-0.92,1.93-0.26,2.94c0.05-1.26,0.63-2.3,1.54-2.92c0.67-0.46,1.5-0.69,2.43-0.62
		C27.54,11.91,25.93,12.44,25.05,13.51z"/>
	<linearGradient id="SVGID_1_" gradientUnits="userSpaceOnUse" x1="27.0852" y1="9.3055" x2="27.0801" y2="17.147">
		<stop  offset="0" style="stop-color:#F8E9FF"/>
		<stop  offset="0.5" style="stop-color:#772FB7"/>
		<stop  offset="0.7174" style="stop-color:#4C1B71"/>
		<stop  offset="1" style="stop-color:#17031A"/>
	</linearGradient>
	<path class="st1" d="M28.51,11.96c-0.43-0.2-0.92-0.31-1.43-0.31c-0.39,0-0.76,0.07-1.11,0.19c-0.84,0.29-1.53,0.89-1.93,1.67
		c-0.24,0.47-0.38,1-0.38,1.56c0,1.89,1.53,3.42,3.42,3.42c1.89,0,3.42-1.53,3.42-3.42c0-0.44-0.09-0.86-0.24-1.24
		C29.94,13,29.31,12.33,28.51,11.96z M26.33,13.53c-0.9,0.62-1.49,1.65-1.54,2.92c-0.66-1.01-0.41-2.13,0.26-2.94
		c0.88-1.07,2.49-1.6,3.71-0.6C27.84,12.84,27,13.07,26.33,13.53z"/>
	<linearGradient id="SVGID_2_" gradientUnits="userSpaceOnUse" x1="16.206" y1="10.5296" x2="16.2025" y2="15.8411">
		<stop  offset="0" style="stop-color:#F8E9FF"/>
		<stop  offset="0.5" style="stop-color:#772FB7"/>
		<stop  offset="0.7174" style="stop-color:#4C1B71"/>
		<stop  offset="1" style="stop-color:#17031A"/>
	</linearGradient>
	<path class="st2" d="M17.25,12.37c-0.31-0.16-0.67-0.26-1.04-0.26c-0.73,0-1.37,0.34-1.79,0.87c-0.32,0.4-0.52,0.9-0.52,1.45
		c0,0.13,0.02,0.25,0.04,0.37c0.18,1.1,1.13,1.95,2.28,1.95c1.28,0,2.32-1.04,2.32-2.32c0-0.19-0.03-0.38-0.07-0.56
		C18.28,13.22,17.84,12.67,17.25,12.37z M14.82,14.56c-0.09,0.25-0.15,0.51-0.16,0.8c-0.15-0.23-0.22-0.46-0.25-0.69
		c-0.15-1.4,1.69-2.72,2.93-1.7C16.15,12.88,15.18,13.53,14.82,14.56z"/>
	<linearGradient id="SVGID_3_" gradientUnits="userSpaceOnUse" x1="32.1721" y1="2.1251" x2="32.1686" y2="7.4366">
		<stop  offset="0" style="stop-color:#F8E9FF"/>
		<stop  offset="0.5" style="stop-color:#772FB7"/>
		<stop  offset="0.7174" style="stop-color:#4C1B71"/>
		<stop  offset="1" style="stop-color:#17031A"/>
	</linearGradient>
	<path class="st3" d="M32.17,8.34c1.28,0,2.32-1.04,2.32-2.32c0-1.28-1.04-2.32-2.32-2.32c-1.28,0-2.32,1.04-2.32,2.32
		C29.85,7.31,30.89,8.34,32.17,8.34z M33.31,4.57c-1.48-0.11-2.63,0.91-2.69,2.39C29.58,5.38,31.86,3.38,33.31,4.57z"/>
	<linearGradient id="SVGID_4_" gradientUnits="userSpaceOnUse" x1="35.6322" y1="10.6911" x2="35.6301" y2="13.8921">
		<stop  offset="0" style="stop-color:#F8E9FF"/>
		<stop  offset="0.5" style="stop-color:#772FB7"/>
		<stop  offset="0.7174" style="stop-color:#4C1B71"/>
		<stop  offset="1" style="stop-color:#17031A"/>
	</linearGradient>
	<path class="st4" d="M34.25,12.86c-0.01,0.06-0.02,0.12-0.02,0.18c0,0.77,0.63,1.4,1.4,1.4c0.55,0,1.02-0.32,1.24-0.78
		c0.09-0.19,0.15-0.4,0.15-0.62c0-0.77-0.62-1.4-1.4-1.4C34.92,11.65,34.34,12.18,34.25,12.86z M36.32,12.16
		c-0.67-0.05-1.24,0.29-1.48,0.85c-0.08,0.18-0.13,0.38-0.14,0.6c-0.14-0.22-0.18-0.45-0.14-0.67
		C34.68,12.2,35.64,11.61,36.32,12.16z"/>
	<linearGradient id="SVGID_5_" gradientUnits="userSpaceOnUse" x1="20.0111" y1="-2.9431" x2="20.0047" y2="6.9123">
		<stop  offset="0" style="stop-color:#F8E9FF"/>
		<stop  offset="0.5" style="stop-color:#772FB7"/>
		<stop  offset="0.7174" style="stop-color:#4C1B71"/>
		<stop  offset="1" style="stop-color:#17031A"/>
	</linearGradient>
	<path class="st5" d="M20.01,8.6c2.37,0,4.3-1.92,4.3-4.3S22.38,0,20.01,0s-4.3,1.92-4.3,4.3S17.63,8.6,20.01,8.6z M22.12,1.58
		c-2.74-0.21-4.89,1.69-4.99,4.44C15.21,3.09,19.43-0.62,22.12,1.58z"/>
	<linearGradient id="SVGID_6_" gradientUnits="userSpaceOnUse" x1="24.5874" y1="-3.6184" x2="24.5574" y2="42.3816">
		<stop  offset="0" style="stop-color:#F8E9FF"/>
		<stop  offset="0.5" style="stop-color:#772FB7"/>
		<stop  offset="0.7174" style="stop-color:#4C1B71"/>
		<stop  offset="1" style="stop-color:#17031A"/>
	</linearGradient>
	<path class="st6" d="M47.51,22.58c-0.21-0.98-1.43-1.39-2.2-0.69c-4.52,0-2.5,0.67-4.68-2.59c3.89-2.88,0.9-5.85-3.9-7.44
		c0.51,0.47,0.69,1.21,0.36,1.89c12.09,4.73-5.26,9.12-22.83,6.19c14.19,2.21,38.48-2.99,16.63-6.02c1.8,5.91-7.77,7.14-7.77,1.16
		c0-1.72,1.75-1.98-4.29-1.23c0.81,3.55-4.61,4.66-5.26,1.08c-2.44,0.74-4.05,1.66-4.75,2.46c-1.64-1.84,2.74-3.56,5.05-4.23
		c0.79-1.42,2.62-1.85,3.95-0.85c2.42-0.37,4.58-0.47,6.97-0.47c0.1,0,2.53-1.82,4.91,0.25c1.62,0.17,3.07,0.43,4.35,0.73
		c0.1-0.7,0.65-1.25,1.34-1.36C20.53,7.41,0.46,13.33,8.51,19.3c-2.18,3.26-0.17,2.59-4.68,2.59c-0.78-0.7-2-0.29-2.2,0.69
		c-0.28,1.3,1.25,2.16,2.2,1.29c3.22,0,2.58-0.45,2.14,1.72c-1.05,5.2,0.69,10.55,4.62,13.99l-0.08,5.71
		c-0.02,1.37,1.97,1.58,2.24,0.24c0.95-4.8,0.31-4.06,2.11-3.22c9.78,4.59,7.81-1.56,8.58,6.91c0.12,1.36,2.13,1.36,2.25,0
		c0.77-8.45-1.15-2.34,8.58-6.91c1.78-0.84,1.17-1.55,2.11,3.22c0.27,1.34,2.26,1.13,2.24-0.24l-0.08-5.71
		c3.92-3.44,5.66-8.8,4.62-13.99c-0.44-2.17-1.08-1.72,2.14-1.72C46.26,24.74,47.79,23.88,47.51,22.58z M11.75,46.08
		c-0.05,0.01-0.1,0.02-0.15,0.02c-0.35,0-0.67-0.28-0.75-0.67c-0.05-0.26-0.01-1.4,0.07-3.1l0.04-0.86L11,40.59
		c0-0.08,0.07-0.14,0.15-0.14c0,0,0,0,0,0c0.08,0,0.15,0.07,0.15,0.15l0.02,0.89l0.04,3.47l0,0.19c-0.01,0.27-0.01,0.39,0.44,0.67
		c0.05,0.03,0.08,0.09,0.07,0.15C11.85,46.02,11.81,46.07,11.75,46.08z M15.11,40.31c-1.72-0.74-3.32-1.77-4.58-3.16
		c-2.66-2.93-3.64-7.01-2.8-10.85c0.39-1.8,1.16-3.53,2.26-5.01c-1.24,3.04-1.84,6.39-1.14,9.64c0.38,1.78,1.14,3.5,2.25,4.94
		c1.12,1.45,2.49,2.58,4.05,3.54c1.36,0.84,2.82,1.53,4.3,2.11C17.96,41.36,16.48,40.9,15.11,40.31z M24.79,49.77
		c-0.05,0.02-0.1,0.03-0.15,0.04c-0.35,0.04-0.7-0.21-0.82-0.59c-0.08-0.26-0.15-1.39-0.25-3.09l-0.05-0.86l-0.04-0.89
		c0-0.08,0.06-0.15,0.13-0.16c0,0,0,0,0,0c0.08-0.01,0.15,0.05,0.16,0.13l0.12,0.88l0.39,3.45l0.02,0.18
		c0.02,0.27,0.03,0.39,0.5,0.62c0.05,0.03,0.09,0.08,0.08,0.14C24.88,49.7,24.85,49.75,24.79,49.77z M37.71,45.99
		c-0.05,0.02-0.1,0.04-0.15,0.05c-0.35,0.07-0.71-0.15-0.87-0.51c-0.1-0.25-0.28-1.37-0.53-3.06l-0.13-0.85l-0.12-0.88
		c-0.01-0.08,0.04-0.15,0.12-0.17c0,0,0,0,0,0c0.08-0.01,0.16,0.04,0.17,0.12l0.19,0.87l0.7,3.4l0.03,0.18
		c0.04,0.27,0.06,0.38,0.56,0.57c0.06,0.02,0.09,0.07,0.1,0.13C37.8,45.91,37.76,45.97,37.71,45.99z"/>
</g>
</svg>